<svg xmlns="http://www.w3.org/2000/svg" xmlns:xlink="http://www.w3.org/1999/xlink" version="1.1" width="266.8758344459278" height="60" style=""><rect id="backgroundrect" width="100%" height="100%" x="0" y="0" fill="none" stroke="none"/><g class="currentLayer" style=""><title>Layer 1</title><g id="svg_1" class="" fill="#6767e7" fill-opacity="1" stroke="#484848" stroke-opacity="1"><svg stroke-opacity="0" stroke="#963d97" stroke-width="0" fill="#963d97" x="0" y="0" id="svg_4"><path d="M15,0h30a15,15 0 0 1 15,15v30a15,15 0 0 1 -15,15h-30a15,15 0 0 1 -15,-15v-30a15,15 0 0 1 15,-15z" id="svg_5" fill="#6767e7" fill-opacity="1" stroke="#484848" stroke-opacity="1"/></svg></g><g id="svg_2"><svg x="17.58333396911621" y="15" stroke="#963d97" stroke-width="0" stroke-linecap="round" stroke-linejoin="round" fill="#fff" id="svg_6"><path d="M17.167-0.000L23.667-0.000L12.167 13.667L24.833 30L17.667 30L8.458 18.125L5.833 21.250L5.833 30L0.000 30L0.000-0.000L5.833-0.000L5.833 13.458L17.167-0.000Z" id="svg_7"/></svg></g><g id="svg_3" class="" fill="#6767e7" fill-opacity="1"><svg fill="#963d97" x="74.01869201660156" y="15" id="svg_8"><path d="M16.052 1.558L22.13 1.558 11.377 14.338 23.221 29.61 16.519 29.61 7.909 18.506 5.455 21.429 5.455 29.61 0 29.61 0 1.558 5.455 1.558 5.455 14.143 16.052 1.558ZM31.208 8.961L31.208 8.961 31.208 8.961Q35.727 8.961 37.948 11.435L37.948 11.435 37.948 11.435Q40.169 13.909 40.169 17.922L40.169 17.922 40.169 29.61 35.104 29.61 35.104 29.61Q34.714 28.247 34.714 26.688L34.714 26.688 34.714 26.688Q33.273 30 29.455 30L29.455 30 29.455 30Q26.455 30 24.643 28.305L24.643 28.305 24.643 28.305Q22.831 26.61 22.831 23.182L22.831 23.182 22.831 23.182Q22.831 20.065 25.169 18.117L25.169 18.117 25.169 18.117Q27.506 16.169 30.818 16.169L30.818 16.169 30.818 16.169Q31.792 16.169 32.766 16.364L32.766 16.364 32.766 16.364Q33.74 16.558 34.208 16.753L34.208 16.753 34.714 16.948 34.714 16.948Q34.714 15.195 33.76 14.123L33.76 14.123 33.76 14.123Q32.805 13.052 30.818 13.052L30.818 13.052 30.818 13.052Q29.182 13.052 27.565 13.344L27.565 13.344 27.565 13.344Q25.948 13.636 25.169 13.948L25.169 13.948 24.39 14.221 24.39 10.13 24.39 10.13Q27.74 8.961 31.208 8.961M34.714 21.039L34.714 21.039 34.714 20.532 34.714 20.532Q33.273 20.26 31.597 20.26L31.597 20.26 31.597 20.26Q30.234 20.26 29.338 20.981L29.338 20.981 29.338 20.981Q28.442 21.701 28.442 23.182L28.442 23.182 28.442 23.182Q28.442 24.468 29.182 25.188L29.182 25.188 29.182 25.188Q29.922 25.909 31.013 25.909L31.013 25.909 31.013 25.909Q32.61 25.909 33.662 24.643L33.662 24.643 33.662 24.643Q34.714 23.377 34.714 21.039ZM44.649 9.351L44.649 8.377 44.649 8.377Q44.649 4.597 46.597 2.299L46.597 2.299 46.597 2.299Q48.545 0 52.052 0L52.052 0 52.052 0Q53.26 0 54.526 0.097L54.526 0.097 54.526 0.097Q55.792 0.195 56.455 0.312L56.455 0.312 57.117 0.39 57.117 4.286 57.117 4.286Q55.558 3.896 54 3.896L54 3.896 54 3.896Q50.104 3.896 50.104 8.377L50.104 8.377 50.104 9.351 54.779 9.351 54.779 13.442 50.104 13.442 50.104 29.61 44.649 29.61 44.649 13.442 40.753 13.442 40.753 9.351 44.649 9.351ZM76.675 9.351L68.61 18.039 77.143 29.61 70.558 29.61 64.948 22.013 62.182 25.013 62.182 29.61 56.727 29.61 56.727 0.39 62.182 0.39 62.182 18.117 70.286 9.351 76.675 9.351ZM85.13 8.961L85.13 8.961 85.13 8.961Q89.649 8.961 91.87 11.435L91.87 11.435 91.87 11.435Q94.091 13.909 94.091 17.922L94.091 17.922 94.091 29.61 89.026 29.61 89.026 29.61Q88.636 28.247 88.636 26.688L88.636 26.688 88.636 26.688Q87.195 30 83.377 30L83.377 30 83.377 30Q80.377 30 78.565 28.305L78.565 28.305 78.565 28.305Q76.753 26.61 76.753 23.182L76.753 23.182 76.753 23.182Q76.753 20.065 79.091 18.117L79.091 18.117 79.091 18.117Q81.429 16.169 84.74 16.169L84.74 16.169 84.74 16.169Q85.714 16.169 86.688 16.364L86.688 16.364 86.688 16.364Q87.662 16.558 88.13 16.753L88.13 16.753 88.636 16.948 88.636 16.948Q88.636 15.195 87.682 14.123L87.682 14.123 87.682 14.123Q86.727 13.052 84.74 13.052L84.74 13.052 84.74 13.052Q83.104 13.052 81.487 13.344L81.487 13.344 81.487 13.344Q79.87 13.636 79.091 13.948L79.091 13.948 78.312 14.221 78.312 10.13 78.312 10.13Q81.662 8.961 85.13 8.961M88.636 21.039L88.636 21.039 88.636 20.532 88.636 20.532Q87.195 20.26 85.519 20.26L85.519 20.26 85.519 20.26Q84.156 20.26 83.26 20.981L83.26 20.981 83.26 20.981Q82.364 21.701 82.364 23.182L82.364 23.182 82.364 23.182Q82.364 24.468 83.104 25.188L83.104 25.188 83.104 25.188Q83.844 25.909 84.935 25.909L84.935 25.909 84.935 25.909Q86.532 25.909 87.584 24.643L87.584 24.643 87.584 24.643Q88.636 23.377 88.636 21.039ZM108.312 8.961L108.312 8.961 108.312 8.961Q112.169 8.961 114.916 11.942L114.916 11.942 114.916 11.942Q117.662 14.922 117.662 19.481L117.662 19.481 117.662 19.481Q117.662 24.039 114.916 27.019L114.916 27.019 114.916 27.019Q112.169 30 108.312 30L108.312 30 108.312 30Q106.169 30 104.513 29.045L104.513 29.045 104.513 29.045Q102.857 28.091 102.078 26.688L102.078 26.688 102.078 26.688Q102.078 27.39 101.981 28.11L101.981 28.11 101.981 28.11Q101.883 28.831 101.766 29.221L101.766 29.221 101.688 29.61 96.623 29.61 96.623 0.39 102.078 0.39 102.078 12.273 102.078 12.273Q102.857 10.87 104.513 9.916L104.513 9.916 104.513 9.916Q106.169 8.961 108.312 8.961M106.753 25.909L106.753 25.909 106.753 25.909Q109.208 25.909 110.63 24.175L110.63 24.175 110.63 24.175Q112.052 22.442 112.052 19.481L112.052 19.481 112.052 19.481Q112.052 16.519 110.63 14.786L110.63 14.786 110.63 14.786Q109.208 13.052 106.753 13.052L106.753 13.052 106.753 13.052Q104.844 13.052 103.461 14.688L103.461 14.688 103.461 14.688Q102.078 16.325 102.078 18.701L102.078 18.701 102.078 20.26 102.078 20.26Q102.078 22.636 103.461 24.273L103.461 24.273 103.461 24.273Q104.844 25.909 106.753 25.909ZM121.052 12L121.052 12 121.052 12Q124.052 8.961 128.766 8.961L128.766 8.961 128.766 8.961Q133.481 8.961 136.481 12L136.481 12 136.481 12Q139.481 15.039 139.481 19.481L139.481 19.481 139.481 19.481Q139.481 23.922 136.481 26.961L136.481 26.961 136.481 26.961Q133.481 30 128.766 30L128.766 30 128.766 30Q124.052 30 121.052 26.961L121.052 26.961 121.052 26.961Q118.052 23.922 118.052 19.481L118.052 19.481 118.052 19.481Q118.052 15.039 121.052 12M125.084 24.214L125.084 24.214 125.084 24.214Q126.506 25.909 128.766 25.909L128.766 25.909 128.766 25.909Q131.026 25.909 132.448 24.214L132.448 24.214 132.448 24.214Q133.87 22.519 133.87 19.481L133.87 19.481 133.87 19.481Q133.87 16.442 132.448 14.747L132.448 14.747 132.448 14.747Q131.026 13.052 128.766 13.052L128.766 13.052 128.766 13.052Q126.506 13.052 125.084 14.747L125.084 14.747 125.084 14.747Q123.662 16.442 123.662 19.481L123.662 19.481 123.662 19.481Q123.662 22.519 125.084 24.214ZM148.247 8.961L148.247 8.961 148.247 8.961Q152.766 8.961 154.987 11.435L154.987 11.435 154.987 11.435Q157.208 13.909 157.208 17.922L157.208 17.922 157.208 29.61 152.143 29.61 152.143 29.61Q151.753 28.247 151.753 26.688L151.753 26.688 151.753 26.688Q150.312 30 146.494 30L146.494 30 146.494 30Q143.494 30 141.682 28.305L141.682 28.305 141.682 28.305Q139.87 26.61 139.87 23.182L139.87 23.182 139.87 23.182Q139.87 20.065 142.208 18.117L142.208 18.117 142.208 18.117Q144.545 16.169 147.857 16.169L147.857 16.169 147.857 16.169Q148.831 16.169 149.805 16.364L149.805 16.364 149.805 16.364Q150.779 16.558 151.247 16.753L151.247 16.753 151.753 16.948 151.753 16.948Q151.753 15.195 150.799 14.123L150.799 14.123 150.799 14.123Q149.844 13.052 147.857 13.052L147.857 13.052 147.857 13.052Q146.221 13.052 144.604 13.344L144.604 13.344 144.604 13.344Q142.987 13.636 142.208 13.948L142.208 13.948 141.429 14.221 141.429 10.13 141.429 10.13Q144.779 8.961 148.247 8.961M151.753 21.039L151.753 21.039 151.753 20.532 151.753 20.532Q150.312 20.26 148.636 20.26L148.636 20.26 148.636 20.26Q147.273 20.26 146.377 20.981L146.377 20.981 146.377 20.981Q145.481 21.701 145.481 23.182L145.481 23.182 145.481 23.182Q145.481 24.468 146.221 25.188L146.221 25.188 146.221 25.188Q146.961 25.909 148.052 25.909L148.052 25.909 148.052 25.909Q149.649 25.909 150.701 24.643L150.701 24.643 150.701 24.643Q151.753 23.377 151.753 21.039ZM165.195 13.247L165.195 13.247 165.195 13.247Q166.481 8.961 172.208 8.961L172.208 8.961 172.208 13.636 172.208 13.636Q169.87 13.636 168.487 14.026L168.487 14.026 168.487 14.026Q167.104 14.416 166.364 15.429L166.364 15.429 166.364 15.429Q165.623 16.442 165.409 17.766L165.409 17.766 165.409 17.766Q165.195 19.091 165.195 21.429L165.195 21.429 165.195 29.61 159.74 29.61 159.74 9.351 164.805 9.351 164.805 9.351Q165.195 10.481 165.195 13.247ZM174.565 27.019L174.565 27.019 174.565 27.019Q171.818 24.039 171.818 19.481L171.818 19.481 171.818 19.481Q171.818 14.922 174.565 11.942L174.565 11.942 174.565 11.942Q177.312 8.961 181.169 8.961L181.169 8.961 181.169 8.961Q183.312 8.961 184.948 9.916L184.948 9.916 184.948 9.916Q186.584 10.87 187.403 12.273L187.403 12.273 187.403 0.39 192.857 0.39 192.857 29.61 187.792 29.61 187.792 29.61Q187.403 28.247 187.403 26.688L187.403 26.688 187.403 26.688Q186.584 28.13 184.948 29.065L184.948 29.065 184.948 29.065Q183.312 30 181.169 30L181.169 30 181.169 30Q177.312 30 174.565 27.019M178.851 14.786L178.851 14.786 178.851 14.786Q177.429 16.519 177.429 19.481L177.429 19.481 177.429 19.481Q177.429 22.442 178.851 24.175L178.851 24.175 178.851 24.175Q180.273 25.909 182.727 25.909L182.727 25.909 182.727 25.909Q184.636 25.909 186.019 24.273L186.019 24.273 186.019 24.273Q187.403 22.636 187.403 20.26L187.403 20.26 187.403 18.701 187.403 18.701Q187.403 16.325 186.019 14.688L186.019 14.688 186.019 14.688Q184.636 13.052 182.727 13.052L182.727 13.052 182.727 13.052Q180.273 13.052 178.851 14.786Z" id="svg_9" fill="#6767e7" fill-opacity="1"/></svg></g></g></svg>